
<svg width="29px" height="36px" viewBox="0 0 29 36" version="1.1" xmlns="http://www.w3.org/2000/svg" xmlns:xlink="http://www.w3.org/1999/xlink">
    <!-- Generator: Sketch 51.1 (57501) - http://www.bohemiancoding.com/sketch -->
    <desc>Created with Sketch.</desc>
    <defs>
        <polygon id="path-1" points="0.00512101587 0.0721343874 0.00512101587 27.771649 34.9596391 27.771649 34.9596391 0.0721343874"></polygon>
    </defs>
    <g id="CLUB-BELLAVISTA" stroke="none" stroke-width="1" fill="none" fill-rule="evenodd">
        <g id="Home" transform="translate(-971.000000, -26.000000)">
            <g id="Menu-Bar" transform="translate(0.000000, -1.000000)">
                <g id="Menu" transform="translate(343.000000, 23.000000)">
                    <g id="Group-13" transform="translate(628.000000, 4.000000)">
                        <g id="007-deportes" transform="translate(14.500000, 18.000000) rotate(-90.000000) translate(-14.500000, -18.000000) translate(-3.000000, 4.000000)">
                            <mask id="mask-2" fill="white">
                                <use xlink:href="#path-1"></use>
                            </mask>
                            <g id="Clip-2"></g>
                            <path d="M33.8670703,0.0721343874 L1.09256874,0.0721343874 C0.489398417,0.0721343874 0,0.589157609 0,1.22637475 L0,26.6174086 C0,27.2546257 0.489398417,27.771649 1.09256874,27.771649 L33.8670703,27.771649 C34.4701553,27.771649 34.9596391,27.2546257 34.9596391,26.6174086 L34.9596391,1.22637475 C34.9596391,0.589157609 34.4701553,0.0721343874 33.8670703,0.0721343874 Z M18.5723883,9.46935153 C20.4513743,9.98493207 21.8496677,11.7773814 21.8496677,13.9221171 C21.8496677,16.0664019 20.4513743,17.8588513 18.5723883,18.3744318 L18.5723883,9.46935153 Z M2.18513747,18.5386277 L5.46241693,18.5386277 L5.46241693,9.30515563 L2.18513747,9.30515563 L2.18513747,18.5386277 Z M16.3872508,18.3744318 C14.5081794,17.8588513 13.1099713,16.0664019 13.1099713,13.9221171 C13.1099713,11.7773814 14.5081794,9.98493207 16.3872508,9.46935153 L16.3872508,18.3744318 Z M16.3872508,7.10099926 C13.2922795,7.65255682 10.9248339,10.4963649 10.9248339,13.9221171 C10.9248339,17.3474185 13.2922795,20.1901445 16.3872508,20.7427841 L16.3872508,25.4636191 L2.18513747,25.4636191 L2.18513747,20.8466576 L6.55498567,20.8466576 C7.15807064,20.8466576 7.64755441,20.3296344 7.64755441,19.6928681 L7.64755441,8.15136611 C7.64755441,7.51414896 7.15807064,6.99712574 6.55498567,6.99712574 L2.18513747,6.99712574 L2.18513747,2.38061512 L16.3872508,2.38061512 L16.3872508,7.10099926 Z M29.4972221,18.5386277 L32.7745016,18.5386277 L32.7745016,9.30515563 L29.4972221,9.30515563 L29.4972221,18.5386277 Z M32.7745016,6.99712574 L28.4046534,6.99712574 C27.8014831,6.99712574 27.3120847,7.51414896 27.3120847,8.15136611 L27.3120847,19.6928681 C27.3120847,20.3296344 27.8014831,20.8466576 28.4046534,20.8466576 L32.7745016,20.8466576 L32.7745016,25.4636191 L18.5723883,25.4636191 L18.5723883,20.7427841 C21.6672742,20.1912265 24.0348052,17.3474185 24.0348052,13.9221171 C24.0348052,10.4963649 21.6672742,7.65363883 18.5723883,7.10099926 L18.5723883,2.38061512 L32.7745016,2.38061512 L32.7745016,6.99712574 Z" id="Fill-1" fill="#FFFFFF" mask="url(#mask-2)"></path>
                        </g>
                    </g>
                </g>
            </g>
        </g>
    </g>
</svg>