
<svg width="27px" height="38px" viewBox="0 0 27 38" version="1.1" xmlns="http://www.w3.org/2000/svg" xmlns:xlink="http://www.w3.org/1999/xlink">
    <!-- Generator: Sketch 51.1 (57501) - http://www.bohemiancoding.com/sketch -->
    <desc>Created with Sketch.</desc>
    <defs></defs>
    <g id="CLUB-BELLAVISTA" stroke="none" stroke-width="1" fill="none" fill-rule="evenodd">
        <g id="Home" transform="translate(-358.000000, -26.000000)" stroke="#FFFFFF">
            <g id="Menu-Bar" transform="translate(0.000000, -1.000000)">
                <g id="Menu" transform="translate(343.000000, 23.000000)">
                    <g id="Group-12" transform="translate(0.000000, 2.000000)">
                        <g id="Group-14">
                            <g id="Group-16">
                                <g id="Escudo-Icono" transform="translate(17.000000, 4.000000)">
                                    <g id="Group-10">
                                        <g id="Group-8" stroke-width="3">
                                            <g id="Group-7">
                                                <polygon id="Path-2" points="0.199262107 0.109566258 22.9742781 0.109566258 22.9742781 23.1550025 22.100953 25.2480337 21.3073328 26.3409909 20.4061538 27.4907603 19.778371 28.151765 18.687786 29.1563478 18.0317208 29.6744203 16.9672755 30.5072141 15.7112815 31.2543387 11.8588807 33.3798339 11.5867701 33.5388854 10.8233606 33.2010561 9.9576417 32.8209558 9.4188841 32.4769268 8.34897514 31.9531054 7.85810473 31.6085128 7.06716272 31.2543387 6.24290323 30.5072141 5.52727373 30.0878864 5.00897799 29.6744203 4.30738254 29.0339312 3.72127341 28.5456173 3.35349555 27.9935026 2.89701392 27.4907603 2.62447478 27.0900319 2.26312473 26.6023944 1.69104965 25.9353027 1.16632611 24.8745841 0.709844473 23.8427224 0.505547248 23.1550025"></polygon>
                                            </g>
                                        </g>
                                    </g>
                                </g>
                            </g>
                        </g>
                    </g>
                </g>
            </g>
        </g>
    </g>
</svg>