
<svg width="46px" height="34px" viewBox="0 0 46 34" version="1.1" xmlns="http://www.w3.org/2000/svg" xmlns:xlink="http://www.w3.org/1999/xlink">
    <!-- Generator: Sketch 51.1 (57501) - http://www.bohemiancoding.com/sketch -->
    <desc>Created with Sketch.</desc>
    <defs></defs>
    <g id="CLUB-BELLAVISTA" stroke="none" stroke-width="1" fill="none" fill-rule="evenodd">
        <g id="Home" transform="translate(-629.000000, -26.000000)" fill="#FFFFFF">
            <g id="Menu-Bar" transform="translate(0.000000, -1.000000)">
                <g id="Menu" transform="translate(343.000000, 23.000000)">
                    <g id="Group-11" transform="translate(276.000000, 0.000000)">
                        <g id="001-juego">
                            <path d="M45.8219882,6.38120468 L45.6227606,6.29437363 L45.2784361,6.14462639 L43.8316219,5.51389994 L38.0001172,5.51389994 C37.3855889,5.13059169 35.3745587,4 32.988545,4 C30.602082,4 28.5902657,5.13059169 27.9756251,5.51389994 L22.1709611,5.51389994 L20.7215639,6.14462639 L20.3784747,6.29437363 L20.1775626,6.3825457 L10,16.5458018 L16.7005142,23.220841 L20.3775763,19.563097 L21.6234784,18.3229886 L21.6234784,38 L44.3777569,38 L44.3777569,18.3260059 L45.6227606,19.563991 L49.2985874,23.221288 L56,16.5458018 L45.8219882,6.38120468 Z M20.3775763,17.615824 L18.5693673,19.4160318 L13.8183407,14.6835718 L20.3775763,8.13090065 L20.3775763,17.615824 Z M40.089648,36.6231076 L35.7668371,36.6231076 L35.7668371,9.41950921 C35.7680724,9.41906221 35.7698693,9.4186152 35.7712169,9.41772119 L35.1096333,8.17794811 C34.5195873,8.33339469 33.8110605,8.41586742 32.9991016,8.41586742 C32.1892764,8.41586742 31.4795143,8.33339469 30.890816,8.17839511 L30.2287831,9.4186152 C30.2301307,9.4186152 30.2322645,9.41906221 30.2336121,9.41950921 L30.2336121,36.6227724 L25.9108012,36.6227724 L25.9108012,6.89068057 L27.5764962,6.89068057 C27.7615734,7.71440216 28.2849107,8.41720844 29.0960835,8.91226836 C29.1526848,8.94624087 29.2109706,8.97987812 29.2702672,9.01128035 L29.9194975,7.7968749 C29.3711164,7.4865405 29.0276903,7.06747172 28.9206644,6.55631956 C29.5975215,6.16597096 31.1939248,5.37633362 32.9876465,5.37633362 C34.8021445,5.37633362 36.4116874,6.18351597 37.0758541,6.56850049 C36.9665822,7.07361806 36.6239423,7.48911079 36.0812887,7.7968749 L36.7292835,9.01094509 C36.7884678,8.97898411 36.8459675,8.94579386 36.9030181,8.91226836 C37.7136293,8.41720844 38.2375281,7.71440216 38.4226054,6.89068057 L40.089648,6.89068057 L40.089648,36.6231076 Z M45.6227606,8.13257693 L52.1381976,14.6395417 L47.3823419,19.3679785 L45.6223114,17.615824 L45.6223114,8.13257693 L45.6227606,8.13257693 Z" id="Fill-1"></path>
                        </g>
                    </g>
                </g>
            </g>
        </g>
    </g>
</svg>